<?xml version="1.0" encoding="utf-8"?>
<!-- Generator: Adobe Illustrator 27.7.0, SVG Export Plug-In . SVG Version: 6.00 Build 0)  -->
<svg version="1.1" id="Layer_1" xmlns="http://www.w3.org/2000/svg" xmlns:xlink="http://www.w3.org/1999/xlink" x="0px" y="0px"
	 viewBox="0 0 1200 400" style="enable-background:new 0 0 1200 400;" xml:space="preserve">
<style type="text/css">
	.st0{fill:#FFFFFF;}
	.st1{enable-background:new    ;}
</style>
<g>
	<g>
		<path class="st0" d="M323,257.1v-42.6c-0.4,1.1-1.5,2.6-3.3,4.5s-4.3,3.7-7.4,5.3s-7,2.4-11.5,2.4c-6.2,0-11.5-1.5-16.2-4.5
			c-4.6-3-8.2-7.1-10.7-12.2c-2.5-5.1-3.8-10.8-3.8-17s1.2-11.9,3.6-17s5.8-9.2,10.3-12.2c4.5-3.1,9.8-4.6,15.9-4.6
			c4.1,0,7.7,0.6,10.9,1.9c3.2,1.3,5.8,2.8,7.8,4.5s3.4,3.3,4.2,4.8v-9.3h23.5v96H323z M307.8,208.1c2.9,0,5.5-0.6,7.7-1.9
			c2.2-1.3,4-3.1,5.3-5.4c1.3-2.3,2-4.9,2-7.8c0-2.9-0.7-5.5-2-7.8s-3.1-4.1-5.3-5.4c-2.2-1.3-4.8-2-7.7-2c-2.7,0-5.1,0.7-7.3,2
			c-2.2,1.3-3.9,3.1-5.2,5.4c-1.3,2.3-1.9,4.9-1.9,7.8c0,2.9,0.6,5.5,1.9,7.8s3,4.1,5.2,5.4C302.7,207.5,305.1,208.1,307.8,208.1z"
			/>
		<path class="st0" d="M356.3,262.6H353c-1.5,0-2.9-0.5-4-1.4c-1-0.9-3-3.1-2.6-6.1l-23.3,2c0,0,3.2,27.7,33.3,25.3v-19.8H356.3z"/>
	</g>
	<g class="st1">
		<path class="st0" d="M1006.9,224.8c-2.4-2.1-3.6-4.9-3.6-8.2c0-3.3,1.2-6.1,3.6-8.2c2.4-2.2,5.5-3.3,9.4-3.3
			c3.8,0,6.9,1.1,9.3,3.3c2.4,2.2,3.6,4.9,3.6,8.2c0,3.2-1.2,5.9-3.6,8.1c-2.4,2.2-5.5,3.3-9.3,3.3
			C1012.4,228,1009.2,226.9,1006.9,224.8z"/>
		<path class="st0" d="M1039.5,178.2c2.4-4.9,5.6-8.6,9.7-11.3c4.1-2.6,8.7-3.9,13.7-3.9c4.4,0,8.1,0.9,11.3,2.6
			c3.2,1.7,5.6,4.1,7.3,7v-8.8h22.1v63.3h-22.1v-8.8c-1.7,2.9-4.2,5.3-7.4,7c-3.2,1.7-6.9,2.6-11.2,2.6c-5,0-9.6-1.3-13.7-3.9
			c-4.1-2.6-7.3-6.4-9.7-11.3c-2.4-4.9-3.6-10.7-3.6-17.2S1037.1,183.1,1039.5,178.2z M1078.2,185.8c-2.2-2.3-4.9-3.5-8.2-3.5
			c-3.3,0-6.1,1.1-8.2,3.4c-2.2,2.3-3.3,5.5-3.3,9.6c0,4.1,1.1,7.3,3.3,9.6c2.2,2.4,4.9,3.6,8.2,3.6c3.2,0,6-1.2,8.2-3.5
			c2.2-2.3,3.3-5.6,3.3-9.7C1081.5,191.3,1080.4,188.1,1078.2,185.8z"/>
		<path class="st0" d="M1118,154.7c-2.4-2.1-3.6-4.8-3.6-8.1c0-3.3,1.2-6.1,3.6-8.2c2.4-2.2,5.5-3.3,9.4-3.3c3.8,0,6.9,1.1,9.3,3.3
			c2.4,2.2,3.6,4.9,3.6,8.2c0,3.2-1.2,5.9-3.6,8.1c-2.4,2.1-5.5,3.2-9.3,3.2C1123.5,157.9,1120.4,156.8,1118,154.7z M1138.4,163.8
			v63.3h-22.1v-63.3H1138.4z"/>
	</g>
	<g>
		<path class="st0" d="M162.5,180c2.2,1.2,2,4.3-0.2,5.4L131.4,200c-2,1-4.3-0.5-4.3-2.7v-32c0-2.3,2.5-3.8,4.5-2.6L162.5,180z"/>
		<path class="st0" d="M180.8,172.8v-12c0-7.2-5.8-13-13-13h-66.6v52.8c0,3.8,1.8,7.2,4.8,9.6c0.1,0.1,0.3,0.2,0.4,0.3
			c0.1,0.1,0.3,0.2,0.4,0.3c1.1,0.7,2.3,1.4,3.7,1.9c0.1,0,0.2,0.1,0.3,0.1c1.6,0.5,3.3,0.8,5,0.8h65V188l0.1,0.1v38.8
			c0,7.2-5.3,13-11.9,13h-59.3c-0.1,0.5-0.4,1-0.8,1.5l-23.2,25c-1.9,2.1-5.1,0.5-5.1-2.5v-24.1h-9c-6.6,0-11.9-5.8-11.9-13v-66.2
			c0-7.2,5.3-13,11.9-13h97.3c6.6,0,11.9,5.8,11.9,13v12.1V172.8z"/>
	</g>
	<g>
		<path class="st0" d="M106.8,210.8c1.1,0.7,2.3,1.4,3.7,1.9C109.1,212.2,107.9,211.6,106.8,210.8z"/>
		<path class="st0" d="M162.3,185.4L131.4,200c-2,1-4.3-0.5-4.3-2.7v-32c0-2.3,2.5-3.8,4.5-2.6l30.9,17.4
			C164.6,181.2,164.5,184.3,162.3,185.4z"/>
		<path class="st0" d="M249.3,134.4v66.2c0,7.2-6.5,13-14.6,13h-11v24.1c0,3-3.8,4.6-6.2,2.5l-28.3-25.1c-0.5-0.4-0.8-0.9-1-1.5
			h-7.5V188l0.1,0.1l28.8,15.2v-44.8l-28.8,14.4l-0.1,0.1v-12c0-7.2-5.8-13-13-13h-66.6v-13.4c0-7.2,6.5-13,14.6-13h119
			C242.8,121.4,249.3,127.2,249.3,134.4z"/>
	</g>
	<g>
		<path class="st0" d="M106,210.2c-3-2.4-4.9-5.7-4.9-9.4v-53h0.1v52.8C101.2,204.4,103,207.8,106,210.2z"/>
		<path class="st0" d="M127,197.3v-32c0-2.3,2.5-3.8,4.5-2.6l30.9,17.4c2.2,1.2,2,4.3-0.2,5.4l-30.9,14.6
			C129.3,201,127,199.5,127,197.3z"/>
		<path class="st0" d="M115.8,213.6h65v0.2h-64c-2.1,0-4.2-0.4-6-1C112.3,213.3,114,213.6,115.8,213.6z"/>
	</g>
	<g>
		<path class="st0" d="M162.3,185.4L131.4,200c-2,1-4.3-0.5-4.3-2.7v-32c0-2.3,2.5-3.8,4.5-2.6l30.9,17.4
			C164.6,181.2,164.5,184.3,162.3,185.4z"/>
	</g>
	<path class="st0" d="M381.8,190.7c0,5.1,1,9.2,2.9,12.2s5.2,4.6,9.7,4.6c4.6,0,7.9-1.5,9.8-4.6c1.9-3,2.9-7.1,2.9-12.2V161h23.4
		v32.2c0,6.9-1.4,12.8-4.3,17.9c-2.8,5.1-6.9,9-12.3,11.8S402,227,394.4,227s-14.1-1.4-19.4-4.1c-5.4-2.8-9.5-6.7-12.3-11.8
		s-4.2-11.1-4.2-17.9V161h23.4v29.7H381.8z"/>
	<path class="st0" d="M457.9,147.8c-3.7,0-6.9-1.3-9.5-3.9c-2.6-2.6-3.9-5.8-3.9-9.4c0-3.6,1.3-6.8,3.9-9.5s5.8-4,9.5-4
		c2.4,0,4.7,0.6,6.7,1.8c2,1.2,3.7,2.9,4.9,4.9c1.2,2,1.9,4.3,1.9,6.8c0,3.6-1.3,6.8-4,9.4C464.8,146.5,461.6,147.8,457.9,147.8z
		 M445.7,225.2v-64.1h23.7v64.1H445.7z"/>
	<path class="st0" d="M520.6,208.4c3,0,5.4-0.5,7.3-1.5c1.9-1,3.2-1.8,3.9-2.5l10.9,16.1c-0.8,0.7-2.3,1.6-4.3,2.6
		c-2,1.1-4.6,2-7.6,2.8s-6.5,1.2-10.4,1.2c-7.3,0-13.8-1.4-19.4-4.2c-5.6-2.8-9.9-6.7-13-11.8s-4.6-11.1-4.6-18s1.5-12.9,4.6-18
		s7.4-9,13-11.8s12-4.2,19.4-4.2c3.9,0,7.3,0.4,10.3,1.2s5.6,1.7,7.7,2.7c2.1,1,3.5,1.9,4.4,2.6L531.7,182c-0.4-0.4-1-0.9-2-1.6
		c-1-0.7-2.2-1.3-3.7-1.8s-3.3-0.8-5.4-0.8c-2.6,0-4.9,0.7-7.1,2c-2.2,1.3-4,3.1-5.4,5.4c-1.4,2.3-2,4.9-2,7.9s0.7,5.6,2,7.9
		c1.4,2.3,3.1,4.1,5.4,5.4C515.7,207.7,518.1,208.4,520.6,208.4z"/>
	<path class="st0" d="M596.2,161h26.9l-30.2,30.6l33.4,33.5h-27.6l-24.8-25.8v25.8h-23.7V117.7h23.7v65.7L596.2,161z"/>
	<path class="st0" d="M626.7,161h25.4l15.5,42.6l15.5-42.6h25.2l-26.9,64.1h-27.7L626.7,161z"/>
	<path class="st0" d="M730.9,147.8c-3.7,0-6.9-1.3-9.5-3.9c-2.6-2.6-3.9-5.8-3.9-9.4c0-3.6,1.3-6.8,3.9-9.5c2.6-2.7,5.8-4,9.5-4
		c2.4,0,4.7,0.6,6.7,1.8c2,1.2,3.7,2.9,4.9,4.9s1.9,4.3,1.9,6.8c0,3.6-1.3,6.8-4,9.4C737.8,146.5,734.6,147.8,730.9,147.8z
		 M718.7,225.2v-64.1h23.7v64.1H718.7z"/>
	<path class="st0" d="M786.4,227c-6.2,0-11.6-1.5-16.2-4.6c-4.6-3-8.1-7.1-10.7-12.3c-2.5-5.1-3.8-10.8-3.8-17.1
		c0-6.2,1.3-11.9,3.8-17.1c2.5-5.1,6.1-9.2,10.7-12.3c4.6-3.1,10-4.6,16.2-4.6c4.1,0,7.8,0.6,10.9,1.9c3.2,1.3,5.8,2.8,7.7,4.5
		c2,1.7,3.2,3.3,3.6,4.8v-52.7h23.7V225h-23.5v-10.4c-1,1.9-2.6,3.8-4.8,5.7s-4.9,3.5-7.9,4.7C793.1,226.4,789.9,227,786.4,227z
		 M793.6,208.4c2.9,0,5.4-0.7,7.7-2s4-3.1,5.4-5.4c1.3-2.3,2-4.9,2-7.9c0-2.9-0.7-5.5-2-7.8s-3.1-4.1-5.4-5.5c-2.3-1.3-4.8-2-7.7-2
		c-2.8,0-5.2,0.7-7.5,2c-2.2,1.3-4,3.2-5.2,5.5c-1.3,2.3-1.9,4.9-1.9,7.8c0,2.9,0.6,5.5,1.9,7.9c1.3,2.3,3,4.1,5.2,5.4
		C788.4,207.7,790.9,208.4,793.6,208.4z"/>
	<path class="st0" d="M865,198.1c0.2,2.3,0.9,4.3,2.2,6.1s3.1,3.2,5.4,4.2c2.3,1,5.1,1.5,8.3,1.5c3,0,5.7-0.3,8.2-0.9
		c2.4-0.6,4.5-1.4,6.3-2.3c1.8-1,3.2-1.9,4.2-2.9l9.2,14.7c-1.4,1.4-3.2,2.8-5.5,4.1s-5.4,2.4-9.3,3.2c-3.9,0.9-8.7,1.3-14.6,1.3
		c-7.1,0-13.5-1.3-19-4s-9.8-6.6-13-11.7c-3.1-5.2-4.7-11.5-4.7-19c0-6.2,1.4-11.9,4.1-16.9c2.7-5,6.7-9,11.9-11.9
		s11.5-4.4,18.8-4.4c7,0,13,1.3,18.2,3.8c5.1,2.6,9.1,6.3,11.8,11.4c2.8,5,4.1,11.3,4.1,18.8c0,0.4,0,1.2,0,2.5s-0.1,2.1-0.2,2.5
		H865V198.1z M889.3,185.7c-0.1-1.7-0.5-3.3-1.3-5s-2.1-3-3.7-4.1c-1.7-1.1-3.8-1.6-6.4-1.6c-2.7,0-4.9,0.5-6.6,1.6
		c-1.8,1-3.1,2.4-4.1,4c-0.9,1.6-1.5,3.3-1.6,5.2L889.3,185.7L889.3,185.7z"/>
	<path class="st0" d="M956.6,227c-7,0-13.3-1.4-18.7-4.3c-5.4-2.9-9.7-6.9-12.8-12s-4.6-10.9-4.6-17.5s1.5-12.4,4.6-17.5
		s7.4-9.2,12.8-12.1c5.4-3,11.7-4.5,18.7-4.5s13.2,1.5,18.6,4.5c5.4,3,9.6,7,12.6,12.1s4.5,11,4.5,17.5c0,6.6-1.5,12.4-4.5,17.5
		s-7.2,9.1-12.6,12C969.8,225.6,963.6,227,956.6,227z M956.6,207.5c2.7,0,5.1-0.6,7-1.8c2-1.2,3.5-2.9,4.6-5.1
		c1.1-2.2,1.6-4.7,1.6-7.4c0-2.8-0.5-5.3-1.6-7.5s-2.6-3.9-4.6-5.2c-2-1.2-4.3-1.9-7-1.9s-5.1,0.6-7.1,1.9c-2,1.2-3.6,3-4.7,5.2
		c-1.1,2.2-1.7,4.7-1.7,7.5s0.6,5.2,1.7,7.4c1.1,2.2,2.7,3.9,4.7,5.1C951.5,206.9,953.9,207.5,956.6,207.5z"/>
</g>
</svg>
